<svg xmlns="http://www.w3.org/2000/svg" viewBox="0 0 100 120"><defs><clipPath id="clip-shield-097"><path d="M16 12 L84 12 L82 38 Q80 63 73 82 Q66 99 50 111 Q34 99 27 82 Q20 63 18 38 Z"/></clipPath></defs><g clip-path="url(#clip-shield-097)"><rect x="0" y="0" width="50" height="120" fill="#B4282E"/><rect x="50" y="0" width="50" height="120" fill="#E1B432"/><path d="M50 0 V120" fill="none" stroke="#111111" stroke-width="3" stroke-linejoin="round" stroke-linecap="round"/><path d="M40 -4 H60 V10 H66 V22 H60 V34 H66 V46 H60 V58 H66 V70 H60 V82 H66 V94 H60 V106 H66 V124 H40 V106 H34 V94 H40 V82 H34 V70 H40 V58 H34 V46 H40 V34 H34 V22 H40 V10 H34 V-4 Z" fill="#2452A3" stroke="#111111" stroke-width="3" stroke-linejoin="round"/></g><path d="M16 12 L84 12 L82 38 Q80 63 73 82 Q66 99 50 111 Q34 99 27 82 Q20 63 18 38 Z" fill="none" stroke="#111111" stroke-width="3" stroke-linejoin="round" stroke-linecap="round"/></svg>