<svg xmlns="http://www.w3.org/2000/svg" viewBox="0 0 100 120"><defs><clipPath id="clip-shield-070"><path d="M16 12 L84 12 L82 38 Q80 63 73 82 Q66 99 50 111 Q34 99 27 82 Q20 63 18 38 Z"/></clipPath></defs><g clip-path="url(#clip-shield-070)"><rect x="0" y="0" width="100" height="120" fill="#E1B432"/><line x1="0" y1="30" x2="100" y2="30" stroke="#111111" stroke-width="3" stroke-linejoin="round" stroke-linecap="round" fill="none"/><line x1="0" y1="58" x2="100" y2="58" stroke="#111111" stroke-width="3" stroke-linejoin="round" stroke-linecap="round" fill="none"/><line x1="0" y1="86" x2="100" y2="86" stroke="#111111" stroke-width="3" stroke-linejoin="round" stroke-linecap="round" fill="none"/><line x1="25" y1="0" x2="25" y2="30" stroke="#111111" stroke-width="3" stroke-linejoin="round" stroke-linecap="round" fill="none"/><line x1="75" y1="0" x2="75" y2="30" stroke="#111111" stroke-width="3" stroke-linejoin="round" stroke-linecap="round" fill="none"/><line x1="50" y1="30" x2="50" y2="58" stroke="#111111" stroke-width="3" stroke-linejoin="round" stroke-linecap="round" fill="none"/><line x1="25" y1="58" x2="25" y2="86" stroke="#111111" stroke-width="3" stroke-linejoin="round" stroke-linecap="round" fill="none"/><line x1="75" y1="58" x2="75" y2="86" stroke="#111111" stroke-width="3" stroke-linejoin="round" stroke-linecap="round" fill="none"/><line x1="50" y1="86" x2="50" y2="120" stroke="#111111" stroke-width="3" stroke-linejoin="round" stroke-linecap="round" fill="none"/></g><path d="M16 12 L84 12 L82 38 Q80 63 73 82 Q66 99 50 111 Q34 99 27 82 Q20 63 18 38 Z" fill="none" stroke="#111111" stroke-width="3" stroke-linejoin="round" stroke-linecap="round"/></svg>