<svg xmlns="http://www.w3.org/2000/svg" viewBox="0 0 100 120"><defs><clipPath id="clip-french-008.svg"><path d="M18 12 L82 12 C85 34 87 56 82 74 C78 90 66 101 50 112 C34 101 22 90 18 74 C13 56 15 34 18 12 Z"/></clipPath></defs><g clip-path="url(#clip-french-008.svg)"><rect x="0" y="0" width="100" height="120" fill="#2452A3"/><polygon points="-12,8 2,-6 58,56 44,70" fill="#F4EEDF" stroke="#111111" stroke-width="3" stroke-linejoin="round" stroke-linecap="round"/><polygon points="112,8 98,-6 42,56 56,70" fill="#F4EEDF" stroke="#111111" stroke-width="3" stroke-linejoin="round" stroke-linecap="round"/><polygon points="-12,112 2,126 58,64 44,50" fill="#F4EEDF" stroke="#111111" stroke-width="3" stroke-linejoin="round" stroke-linecap="round"/><polygon points="112,112 98,126 42,64 56,50" fill="#F4EEDF" stroke="#111111" stroke-width="3" stroke-linejoin="round" stroke-linecap="round"/></g><path d="M18 12 L82 12 C85 34 87 56 82 74 C78 90 66 101 50 112 C34 101 22 90 18 74 C13 56 15 34 18 12 Z" fill="none" stroke="#111111" stroke-width="3" stroke-linejoin="round" stroke-linecap="round"/></svg>