<svg xmlns="http://www.w3.org/2000/svg" width="98" height="93" viewBox="0 0 100 100"><title>Anchor — image</title><g id="illustration" fill="none" stroke="#7896aa" stroke-opacity="0.95" stroke-width="1.5" stroke-linecap="round" stroke-linejoin="round">
      <path d="M50 23 L50 72 C50 79 45 84 38 84 C29 84 22 78 18 70"/>
      <path d="M50 72 C50 79 55 84 62 84 C71 84 78 78 82 70"/>
      <path d="M31 29 L69 29"/>
      <path d="M50 16 C44 16 41 21 44 26 C47 31 53 31 56 26 C59 21 56 16 50 16 Z"/>
      <path d="M18 70 L28 70"/>
      <path d="M82 70 L72 70"/>
      <path d="M38 84 L31 91"/>
      <path d="M62 84 L69 91"/>
    </g><g fill="#bddae9" opacity="0.12"><circle cx="50" cy="17" r="5.8500000000000005"/><circle cx="31" cy="29" r="4.680000000000001"/><circle cx="50" cy="50" r="5.2"/><circle cx="18" cy="70" r="4.680000000000001"/></g><g id="stars"><circle cx="50" cy="17" r="2.25" fill="#f8fbff" stroke="#536d82" stroke-width="0.4"/><circle cx="44" cy="28" r="1.4" fill="#f8fbff" stroke="#536d82" stroke-width="0.4"/><circle cx="56" cy="28" r="1.6" fill="#f8fbff" stroke="#536d82" stroke-width="0.4"/><circle cx="31" cy="29" r="1.8" fill="#f8fbff" stroke="#536d82" stroke-width="0.4"/><circle cx="69" cy="29" r="1.35" fill="#f8fbff" stroke="#536d82" stroke-width="0.4"/><circle cx="50" cy="50" r="2" fill="#f8fbff" stroke="#536d82" stroke-width="0.4"/><circle cx="50" cy="72" r="1.5" fill="#f8fbff" stroke="#536d82" stroke-width="0.4"/><circle cx="18" cy="70" r="1.8" fill="#f8fbff" stroke="#536d82" stroke-width="0.4"/><circle cx="82" cy="70" r="1.45" fill="#f8fbff" stroke="#536d82" stroke-width="0.4"/><circle cx="31" cy="91" r="1.3" fill="#f8fbff" stroke="#536d82" stroke-width="0.4"/><circle cx="69" cy="91" r="1.65" fill="#f8fbff" stroke="#536d82" stroke-width="0.4"/></g></svg>
