<svg xmlns="http://www.w3.org/2000/svg" width="98" height="93" viewBox="0 0 100 100"><title>Tree — line</title><g id="connections" fill="none" stroke="#7294aa" stroke-opacity="0.9" stroke-width="0.7" stroke-linecap="round"><line x1="45" y1="85" x2="45" y2="63"/><line x1="45" y1="63" x2="35" y2="60"/><line x1="45" y1="63" x2="50" y2="44"/><line x1="50" y1="44" x2="43" y2="51"/><line x1="43" y1="51" x2="39" y2="42"/><line x1="50" y1="44" x2="63" y2="51"/><line x1="63" y1="51" x2="68" y2="42"/><line x1="63" y1="51" x2="72" y2="60"/><line x1="45" y1="63" x2="61" y2="63"/><line x1="61" y1="63" x2="56" y2="24"/></g><g fill="#bddae9" opacity="0.12"><circle cx="45" cy="85" r="4.680000000000001"/><circle cx="39" cy="42" r="4.9399999999999995"/><circle cx="56" cy="24" r="5.8500000000000005"/><circle cx="63" cy="51" r="4.42"/><circle cx="61" cy="63" r="4.9399999999999995"/></g><g id="stars"><circle cx="45" cy="85" r="1.8" fill="#f8fbff" stroke="#536d82" stroke-width="0.4"/><circle cx="45" cy="63" r="1.2" fill="#f8fbff" stroke="#536d82" stroke-width="0.4"/><circle cx="35" cy="60" r="1.65" fill="#f8fbff" stroke="#536d82" stroke-width="0.4"/><circle cx="43" cy="51" r="1.3" fill="#f8fbff" stroke="#536d82" stroke-width="0.4"/><circle cx="39" cy="42" r="1.9" fill="#f8fbff" stroke="#536d82" stroke-width="0.4"/><circle cx="56" cy="24" r="2.25" fill="#f8fbff" stroke="#536d82" stroke-width="0.4"/><circle cx="68" cy="42" r="1.3" fill="#f8fbff" stroke="#536d82" stroke-width="0.4"/><circle cx="63" cy="51" r="1.7" fill="#f8fbff" stroke="#536d82" stroke-width="0.4"/><circle cx="72" cy="60" r="1.2" fill="#f8fbff" stroke="#536d82" stroke-width="0.4"/><circle cx="61" cy="63" r="1.9" fill="#f8fbff" stroke="#536d82" stroke-width="0.4"/><circle cx="50" cy="44" r="1.35" fill="#f8fbff" stroke="#536d82" stroke-width="0.4"/></g></svg>
