<svg xmlns="http://www.w3.org/2000/svg" width="98" height="93" viewBox="0 0 100 100"><title>River — line</title><g id="connections" fill="none" stroke="#7294aa" stroke-opacity="0.9" stroke-width="0.7" stroke-linecap="round"><line x1="63" y1="14" x2="51" y2="23"/><line x1="51" y1="23" x2="53" y2="32"/><line x1="53" y1="32" x2="64" y2="39"/><line x1="64" y1="39" x2="47" y2="49"/><line x1="47" y1="49" x2="33" y2="56"/><line x1="33" y1="56" x2="38" y2="66"/><line x1="38" y1="66" x2="57" y2="72"/><line x1="57" y1="72" x2="48" y2="82"/><line x1="48" y1="82" x2="30" y2="87"/><line x1="48" y1="82" x2="69" y2="84"/><line x1="64" y1="39" x2="73" y2="58"/><line x1="73" y1="58" x2="82" y2="43"/></g><g fill="#bddae9" opacity="0.12"><circle cx="63" cy="14" r="4.680000000000001"/><circle cx="53" cy="32" r="5.59"/><circle cx="47" cy="49" r="5.9799999999999995"/><circle cx="38" cy="66" r="4.8100000000000005"/><circle cx="48" cy="82" r="5.33"/><circle cx="69" cy="84" r="4.55"/><circle cx="82" cy="43" r="4.9399999999999995"/></g><g id="stars"><circle cx="63" cy="14" r="1.8" fill="#f8fbff" stroke="#536d82" stroke-width="0.4"/><circle cx="51" cy="23" r="1.25" fill="#f8fbff" stroke="#536d82" stroke-width="0.4"/><circle cx="53" cy="32" r="2.15" fill="#f8fbff" stroke="#536d82" stroke-width="0.4"/><circle cx="64" cy="39" r="1.35" fill="#f8fbff" stroke="#536d82" stroke-width="0.4"/><circle cx="47" cy="49" r="2.3" fill="#f8fbff" stroke="#536d82" stroke-width="0.4"/><circle cx="33" cy="56" r="1.3" fill="#f8fbff" stroke="#536d82" stroke-width="0.4"/><circle cx="38" cy="66" r="1.85" fill="#f8fbff" stroke="#536d82" stroke-width="0.4"/><circle cx="57" cy="72" r="1.2" fill="#f8fbff" stroke="#536d82" stroke-width="0.4"/><circle cx="48" cy="82" r="2.05" fill="#f8fbff" stroke="#536d82" stroke-width="0.4"/><circle cx="30" cy="87" r="1.45" fill="#f8fbff" stroke="#536d82" stroke-width="0.4"/><circle cx="69" cy="84" r="1.75" fill="#f8fbff" stroke="#536d82" stroke-width="0.4"/><circle cx="73" cy="58" r="1.25" fill="#f8fbff" stroke="#536d82" stroke-width="0.4"/><circle cx="82" cy="43" r="1.9" fill="#f8fbff" stroke="#536d82" stroke-width="0.4"/></g></svg>
