<svg xmlns="http://www.w3.org/2000/svg" viewBox="0 0 100 120"><defs><clipPath id="clip-banner-022.svg"><path d="M16 10 L84 10 L84 66 Q83 88 66 100 Q57 106 50 112 Q43 106 34 100 Q17 88 16 66 Z"/></clipPath></defs><g clip-path="url(#clip-banner-022.svg)"><rect x="0" y="0" width="100" height="120" fill="#B4282E"/><polygon points="-22,12 -10,0 112,110 100,122" fill="#E1B432" stroke="#111111" stroke-width="3" stroke-linejoin="round" stroke-linecap="round"/><polygon points="8,-4 20,-16 122,76 110,88" fill="#E1B432" stroke="#111111" stroke-width="3" stroke-linejoin="round" stroke-linecap="round"/><polygon points="110,0 122,12 0,122 -12,110" fill="#F4EEDF" stroke="#111111" stroke-width="3" stroke-linejoin="round" stroke-linecap="round"/><polygon points="90,-16 102,-4 -10,98 -22,86" fill="#F4EEDF" stroke="#111111" stroke-width="3" stroke-linejoin="round" stroke-linecap="round"/></g><path d="M16 10 L84 10 L84 66 Q83 88 66 100 Q57 106 50 112 Q43 106 34 100 Q17 88 16 66 Z" fill="none" stroke="#111111" stroke-width="3" stroke-linejoin="round" stroke-linecap="round"/></svg>